<?xml version="1.0" encoding="UTF-8"?>
<!DOCTYPE svg PUBLIC "-//W3C//DTD SVG 1.1//EN" "http://www.w3.org/Graphics/SVG/1.1/DTD/svg11.dtd">
<!-- Creator: CorelDRAW -->
<svg xmlns="http://www.w3.org/2000/svg" xml:space="preserve" width="6.82666in" height="6.82666in" style="shape-rendering:geometricPrecision; text-rendering:geometricPrecision; image-rendering:optimizeQuality; fill-rule:evenodd; clip-rule:evenodd"
viewBox="0 0 6.82666 6.82666"
 xmlns:xlink="http://www.w3.org/1999/xlink">
 <defs>
  <style type="text/css">
   <![CDATA[
    .fil1 {fill:none}
    .fil0 {fill:black;fill-rule:nonzero}
   ]]>
  </style>
 </defs>
 <g id="Layer_x0020_1">
  <metadata id="CorelCorpID_0Corel-Layer"/>
  <g id="_297714680">
   <path id="_297714488" class="fil0" d="M1.24755 0.853327l4.33156 0c0.0294528,0 0.0533346,0.0238819 0.0533346,0.0533346l0 5.01334c0,0.0294528 -0.0238819,0.0533346 -0.0533346,0.0533346l-4.33156 0c-0.0294528,0 -0.0533346,-0.0238819 -0.0533346,-0.0533346l0 -5.01334c0,-0.0294528 0.0238819,-0.0533346 0.0533346,-0.0533346zm4.27822 0.106669l-4.22489 0 0 4.90667 4.22489 0 0 -4.90667z"/>
   <polygon id="_297714872" class="fil0" points="3.36,5.91994 3.36,1.78525 3.46667,1.78525 3.46667,5.91994 "/>
   <polygon id="_297714512" class="fil0" points="5.57911,1.83858 1.24755,1.83858 1.24755,1.73191 5.57911,1.73191 "/>
   <path id="_297714704" class="fil0" d="M2.62544 1.30882c0.0208228,-0.0208228 0.0208228,-0.0545945 0,-0.0754173 -0.0208228,-0.0208228 -0.0545945,-0.0208228 -0.0754173,0l-0.232189 0.232189 -0.232189 -0.232189c-0.0208228,-0.0208228 -0.0545945,-0.0208228 -0.0754173,0 -0.0208228,0.0208228 -0.0208228,0.0545945 0,0.0754173l0.269894 0.269902c0.0208268,0.0208268 0.0545984,0.0208268 0.0754252,0l0.269894 -0.269902z"/>
   <path id="_297715112" class="fil0" d="M4.27663 1.2334c-0.0208228,-0.0208228 -0.0545945,-0.0208228 -0.0754173,0 -0.0208228,0.0208228 -0.0208228,0.0545945 0,0.0754173l0.269894 0.269902c0.0208268,0.0208268 0.0545984,0.0208268 0.0754252,0l0.269898 -0.269902c0.0208228,-0.0208228 0.0208228,-0.0545945 0,-0.0754173 -0.0208228,-0.0208228 -0.0545945,-0.0208228 -0.0754173,0l-0.232193 0.232189 -0.232189 -0.232189z"/>
   <path id="_297715040" class="fil0" d="M3.16209 4.26872l0 -0.832244c0,-0.0294528 0.0238819,-0.0533346 0.0533346,-0.0533346l0.395811 0c0.0294528,0 0.0533346,0.0238819 0.0533346,0.0533346l0 0.832244c0,0.0294528 -0.0238819,0.0533346 -0.0533346,0.0533346l-0.395811 0c-0.0294528,0 -0.0533346,-0.0238819 -0.0533346,-0.0533346zm0.106669 -0.778909l0 0.725575 0.289142 0 0 -0.725575 -0.289142 0z"/>
  </g>
 </g>
 <rect class="fil1" width="6.82666" height="6.82666"/>
</svg>
