<svg width="60" height="100" viewBox="0 0 60 100" fill="none" xmlns="http://www.w3.org/2000/svg">
<g clip-path="url(#clip0)">
<path d="M15.8903 63.1191L15.9008 63.1221L15.9225 63.2191L15.921 63.2638L15.8903 63.1191ZM23.2016 41.7991C23.2211 41.7209 23.2383 41.6408 23.2481 41.5529C23.2391 41.6363 23.2241 41.718 23.2016 41.7991ZM23.1761 41.8923L23.1776 41.8884L23.1761 41.8923ZM23.251 41.5272L23.254 41.3408L23.251 41.5272ZM39.6089 74.7192C40.0247 74.629 40.3761 74.5191 40.6384 74.3836C40.6931 68.6085 40.257 64.1 39.7468 60.8694C39.5729 59.7318 39.3849 58.7453 39.202 57.8985L39.1968 57.8735C39.1578 57.6934 39.1196 57.523 39.0822 57.357L39.1204 57.3676L40.5612 54.109C40.5619 54.5641 40.6062 55.0147 40.7598 55.27C40.8077 55.352 40.8691 55.4117 40.9418 55.4473L41.0774 56.8185C40.9501 57.8591 40.8722 59.203 40.8722 59.3832L40.8834 61.3435C40.8459 61.4163 40.8107 61.4891 40.7635 61.5633C40.6249 61.7693 40.5005 62.0935 40.8879 62.0397L41.0153 83.8042C40.3552 83.8921 39.7288 84.0504 39.2335 84.2966C39.1916 84.1687 39.1571 84.0808 39.1489 84.0633C39.1593 83.9293 39.1586 83.7968 39.1519 83.6663V83.6211C39.1623 82.1235 39.2268 80.8053 39.301 79.6336C39.4313 77.6452 39.5999 76.0711 39.6089 74.7192V74.7192ZM28.1857 62.6841L28.2426 62.6267H28.4472C28.5536 62.9146 28.6757 63.1502 28.8285 63.4313C28.923 63.6032 29.1088 63.6106 29.3111 63.544L29.3021 63.5955H28.1542L28.1857 62.6841V62.6841ZM26.3537 61.255L27.4964 61.1639C27.4566 60.699 27.3278 59.4681 27.1562 57.86H27.2408C27.2154 57.5643 27.1217 56.9889 26.9809 56.2305C26.8692 55.1919 26.7478 54.0687 26.625 52.931C27.5413 52.3135 29.0316 51.269 30.1225 50.4819L30.3256 53.3151C30.1517 54.8247 29.6003 59.1288 29.5006 59.9058C29.129 60.3164 28.3258 61.3245 28.2659 61.5133C28.2306 61.6246 28.2351 61.7693 28.2539 61.9095C27.8433 61.9164 27.4941 62.2572 27.4731 62.6841L27.4289 63.5955H26.4272L26.3537 61.255ZM21.1756 63.4523L21.1838 63.3502L21.3299 64.4788H21.1014L21.1756 63.4523V63.4523ZM30.1989 83.1098C30.2282 83.4103 30.0551 83.6959 29.7779 83.8109C29.4714 83.9346 29.1552 84.108 28.8413 84.2814C28.3378 84.0551 27.7136 83.9081 27.0573 83.824L26.6976 72.1627L26.6789 71.5786H28.1617C28.1107 72.0157 28.0598 72.461 28.0088 72.9208C27.9541 73.3874 27.8995 73.8631 27.85 74.3541C28.331 74.4594 28.9552 74.5638 29.6737 74.6547L29.6879 74.9003L30.1989 83.1098V83.1098ZM56.1481 60.2223L56.1511 60.2043L56.1466 59.7241L56.1451 59.6013L56.1376 58.9127C56.1346 58.5636 55.9518 58.2591 55.6798 58.0857L55.6768 57.813L55.9285 57.7644L55.5516 50.5071L55.5344 50.1609C55.5202 50.0828 55.4999 50.005 55.4722 49.9328L55.4235 49.757L53.1503 43.1738C52.9787 42.6726 52.5793 42.3172 52.1118 42.1846V42.1763L49.1897 41.1712L47.9706 40.1288L48.161 38.3623L48.2539 38.3526C49.5448 37.9972 49.619 36.1908 49.413 34.6038C49.2017 32.9745 47.9804 32.0102 46.3597 31.8822C42.6929 31.5929 42.9386 33.5222 43.532 33.6562C43.281 34.0963 43.1094 34.6478 43.0532 35.3234C43.1139 35.5408 43.1904 35.7211 43.1904 35.7211L42.6681 36.9172C42.582 37.114 42.6891 37.3421 42.8944 37.3998L43.2008 37.5004C43.1963 37.7217 43.1237 38.6623 43.1237 38.6623C43.1169 39.2192 43.3844 39.9812 44.049 39.9995L44.1209 40.0003C44.2041 40.4935 44.3577 40.9335 44.5997 41.3054L44.5847 41.3063C44.354 41.0136 44.3142 40.7305 44.088 40.3556L43.4646 40.9282L43.003 41.3524L41.1112 42.1265L41.1142 42.1445C40.6316 42.3363 40.2533 42.7645 40.1551 43.3186L40.0779 43.7619L40.0277 44.0435C39.8801 43.9726 39.7003 43.8929 39.477 43.7974L39.4763 43.7992C38.9623 43.5521 38.3921 43.3166 37.9021 43.1257L37.9118 43.1151L37.0209 42.378V42.1591C37.2562 42.1484 37.5245 42.1135 37.8391 42.0424C40.4945 41.1773 39.3616 38.493 39.1391 36.8257C38.9113 35.1138 37.6174 34.0662 35.7202 33.8867C35.1471 33.8329 34.6728 33.8412 34.2749 33.892C31.9882 33.7587 30.5466 35.8902 32.0256 37.4505C32.0256 37.6248 32.0346 37.7361 32.0346 37.7361L31.5776 38.8747C31.4652 39.1185 31.6892 39.2951 31.8728 39.3937C31.9994 39.4617 32.0743 39.5949 32.0638 39.7395C32.0361 40.1473 32.156 40.8213 32.156 40.8213C32.2796 41.4826 32.7906 41.8084 33.4889 41.8244C33.4889 41.8244 33.5691 41.8197 33.6972 41.7933L33.5976 42.3067L32.6902 42.965C32.0406 43.1695 31.445 43.3346 31.1453 43.5269L31.1445 43.5317C30.4582 43.7817 29.7501 44.83 29.8588 46.1382L29.8962 47.1939L29.8295 47.1054C29.2856 47.522 28.1962 48.1523 27.1982 48.7175C26.9831 47.2235 26.7344 44.8587 26.4759 44.061C26.2406 43.3346 26.2189 43.2393 25.7146 42.6688C25.4891 42.4129 25.2164 42.2061 24.9129 42.0522L24.9024 42.0463C24.7496 41.9667 24.587 41.9036 24.4206 41.8561L23.4848 41.487L23.2563 41.2356L23.2578 41.1781C23.3447 41.1909 23.4324 41.2039 23.5253 41.2137C24.2363 41.2888 24.4776 40.4503 24.5038 39.91C24.5038 39.91 24.4888 38.9936 24.4971 38.78L24.7998 38.6998C25.0028 38.6572 25.1197 38.4421 25.0478 38.2459L24.6125 37.0544C24.6125 37.0544 24.6971 36.8848 24.769 36.678C24.7368 35.2532 24.1494 34.3601 23.3544 33.901L23.3597 33.9026C23.7486 33.4966 22.6367 32.8694 21.24 33.1186C19.6853 33.3958 18.5817 34.1518 18.3576 35.7319C18.216 36.7249 18.0864 38.6391 19.549 39.301L19.5557 39.3019L19.4568 40.3183L19.2492 40.5488L18.0707 41.5386L15.1396 42.9484L15.1388 42.9544C15.0002 43.0052 14.8631 43.0763 14.7312 43.1855C14.2307 43.5991 13.7976 44.3027 13.6545 44.9611C13.1578 47.2471 12.1965 51.4426 12.2085 51.526C12.2122 53.3969 12.4265 56.5588 12.9075 60.2219L13.0858 60.1855L13.154 60.6613L13.6036 60.5823L13.632 60.7181C13.45 60.9575 13.3653 61.2708 13.4327 61.5898L13.5871 62.3118L13.6965 62.8255C13.4919 62.9314 13.2941 63.0586 13.1091 63.211C12.9113 63.3728 12.8528 63.6223 12.96 63.7297C13.0671 63.8394 13.2724 63.7963 13.4342 63.664C13.5571 63.5631 13.686 63.4767 13.8194 63.3995L13.928 63.9099C13.9647 64.0836 14.1341 64.194 14.3056 64.157L14.3124 64.1555C14.484 64.1176 14.5926 63.9472 14.5559 63.7738L14.4218 63.145L14.5911 63.9365C14.6323 64.1321 14.8226 64.2561 15.0159 64.2138L15.0234 64.2123C15.207 64.173 15.3216 63.9963 15.2984 63.8123L15.3568 64.0856C15.3981 64.2812 15.5891 64.4055 15.7817 64.3629L15.7892 64.3614L15.8873 64.3182L15.8821 64.4789H13.4874L13.5107 64.3614C13.5107 64.1676 13.3548 64.0099 13.163 64.0099C12.9704 64.0099 12.8154 64.1676 12.8154 64.3614L12.8386 64.4789H7.87923C7.41319 64.4789 7.03406 64.862 7.03406 65.3334V74.7078C7.03406 75.1791 7.41319 75.5623 7.87923 75.5623H10.5316H12.2309H15.5254L15.2055 85.5193V85.5216H15.2017V86.1777H19.5505V85.7034H19.5527L20.2922 75.5623H22.5153L22.9431 85.5081C22.9431 85.5717 22.9424 85.6344 22.9439 85.7043V86.1777H29.9951V86.1359L31.675 86.0972C32.688 85.8791 32.0121 84.1485 31.9724 84.0635V84.0627V84.0619C32.1066 82.4091 32.2699 80.9912 32.4385 79.7638C32.6842 78.0142 32.9367 76.6425 33.1113 75.4879L33.1188 75.4394C33.142 75.2826 33.163 75.1296 33.1832 74.9804L33.1862 74.96C34.1183 75.01 35.0691 75.0349 35.9712 75.0198C35.9907 75.1251 36.0109 75.2258 36.0304 75.3305C36.5557 78.2459 37.1109 81.5521 37.3686 83.0952H37.3731L37.3746 83.1103C37.4031 83.4127 37.2083 83.6473 36.9535 83.8104C36.1368 84.3315 35.6431 84.5338 35.0287 84.7835L35.0294 84.7845C34.8713 84.8442 34.7117 84.9063 34.5439 84.9747C34.0539 85.1753 33.6718 85.4153 33.5137 85.7562C33.3998 86.2125 35.198 86.1766 35.3913 86.1766L38.1868 86.1124V86.1775H44.9774V85.6993C44.9781 85.6254 44.9774 85.557 44.9774 85.489L45.8 63.157L45.8053 63.2609L47.3705 85.7003H47.3712V86.1775H51.5588V85.7003H51.5596L51.5588 85.6668V85.5162H51.5596L51.5536 85.5132L50.7511 59.3832C50.7511 59.14 50.6447 57.8008 50.5886 56.6708C50.5841 56.3471 50.5736 56.1548 50.5593 55.942L50.3001 55.929L50.4432 55.8731C50.925 55.5792 51.125 54.3936 51.1707 53.8081L51.6158 48.3149L52.4737 50.798L53.7489 58.1825L53.8935 58.1553C53.8021 58.228 53.7242 58.3151 53.6635 58.416L53.6583 58.4266C53.5976 58.5296 53.5549 58.6432 53.5339 58.766C53.3241 59.4794 53.0544 60.1528 52.7314 60.7724C52.6408 60.9506 52.7037 61.1686 52.8753 61.2707L52.882 61.2746C53.0536 61.3769 53.2746 61.3157 53.3713 61.1269C53.4252 61.0245 53.4747 60.9194 53.5256 60.8148L53.5391 62.1646C53.5414 62.351 53.692 62.5002 53.8763 62.4986H53.883C54.0359 62.4966 54.158 62.3898 54.1962 62.248L54.1985 62.4587C54.2 62.6448 54.3603 62.7942 54.5551 62.7925L54.5626 62.7917C54.7574 62.7903 54.9148 62.6372 54.9125 62.4508L54.9103 62.2153C54.9223 62.3926 55.0684 62.5325 55.2497 62.5311L55.2564 62.5303C55.4445 62.5288 55.5951 62.3755 55.5936 62.19L55.5876 61.5811C55.6221 61.7092 55.7337 61.8045 55.8708 61.8039L55.8768 61.803C56.0409 61.8015 56.172 61.666 56.1698 61.5009L56.1481 60.222" fill="#C6C6C6"/>
<path d="M28.0141 -8.8072e-06H41.243C42.2313 -8.8072e-06 43.033 0.809745 43.033 1.80962V3.99191H26.2241V1.80962C26.2241 0.809745 27.0258 -8.8072e-06 28.0141 -8.8072e-06" fill="#7C9298"/>
<path d="M50.3 84.2708H58.0847V54.4975H50.3V84.2708Z" fill="#E6EBE6"/>
<path d="M51.5154 84.2708H48.3528V54.4975H51.0771C50.9962 54.918 50.8643 55.3725 50.6628 55.6565H50.3586L50.4455 55.8716C50.4447 55.8724 50.444 55.8724 50.4432 55.8731L50.3001 55.929L50.4724 55.9373L50.5744 56.1867C50.5811 56.3223 50.5863 56.4714 50.5886 56.6708C50.6208 57.3138 50.6688 58.0242 50.7047 58.5627L49.8273 56.4571V61.7784L50.901 64.2666L51.5154 84.2708ZM55.8192 55.6565H53.3129L53.1128 54.4975H55.7585L55.8192 55.6565Z" fill="#CACECA"/>
<path d="M46.7539 84.2708H45.0223L45.2576 77.8914L45.4846 78.4148V73.6904L45.4179 73.5282L45.4756 71.9671L45.4846 71.9914V71.7073L45.8001 63.157L45.8053 63.2609L46.7539 76.8581V84.2708ZM39.286 84.2708H39.2245C39.1871 84.1572 39.1564 84.0793 39.1489 84.0633C39.1594 83.9293 39.1586 83.7968 39.1519 83.6663V83.6211C39.1624 82.1235 39.2268 80.8054 39.301 79.6336C39.4313 77.6452 39.5999 76.0711 39.6089 74.7192C40.0248 74.629 40.3762 74.5191 40.6384 74.3836C40.6654 71.5286 40.5725 68.9828 40.4099 66.7482L40.9224 67.9253L41.0153 83.8042C40.3784 83.8891 39.773 84.04 39.286 84.2708V84.2708ZM36.1676 84.2708H32.0489C32.0114 84.1566 31.98 84.0793 31.9725 84.0633V84.0625V84.0617C32.1066 82.4089 32.2699 80.991 32.4385 79.7637C32.6843 78.0141 32.9368 76.6423 33.1113 75.4878L33.1188 75.4392C33.1421 75.2824 33.163 75.1294 33.1833 74.9803L33.1863 74.9599C33.937 74.9998 34.6998 75.0241 35.4393 75.0241C35.6184 75.0241 35.7959 75.0226 35.9713 75.0197C35.9907 75.125 36.011 75.2256 36.0304 75.3303C36.5557 78.2458 37.1109 81.552 37.3686 83.0951H37.3731L37.3746 83.1101C37.4031 83.4126 37.2083 83.6472 36.9535 83.8103C36.6561 84.0002 36.4006 84.1482 36.1676 84.2707V84.2708ZM28.8593 84.2707H28.8181C28.3191 84.0502 27.7039 83.9064 27.0573 83.8238L26.6977 72.1625L26.6789 71.5784H28.1617C28.1108 72.0155 28.0598 72.4608 28.0089 72.9206C27.9542 73.3872 27.8995 73.863 27.85 74.3539C28.3311 74.4592 28.9552 74.5637 29.6737 74.6546L29.688 74.9001L30.199 83.1096C30.2282 83.4102 30.0551 83.6957 29.7779 83.8108C29.4774 83.9321 29.168 84.1011 28.8593 84.2707V84.2707ZM29.3021 63.5954H28.1542L28.1857 62.684L28.2426 62.6266H28.4472C28.5536 62.9145 28.6757 63.1501 28.8286 63.4312C28.8885 63.54 28.9844 63.5827 29.0983 63.5827C29.1642 63.5827 29.2369 63.5681 29.3111 63.5439L29.3021 63.5954V63.5954ZM27.4289 63.5954H26.4272L26.3538 61.2549L27.4964 61.1637C27.4567 60.6989 27.3278 59.468 27.1562 57.8598H27.2409C27.2154 57.5642 27.1217 56.9887 26.9809 56.2304C26.9209 55.6738 26.8588 55.0921 26.7943 54.4973H30.184C29.9502 56.3963 29.5808 59.2831 29.5007 59.9056C29.129 60.3163 28.3258 61.3244 28.2659 61.5132C28.2307 61.6244 28.2351 61.7691 28.2539 61.9094C27.8433 61.9162 27.4941 62.2571 27.4731 62.684L27.4289 63.5954V63.5954ZM40.8909 62.5932L39.4456 59.1035C39.3647 58.6741 39.283 58.2726 39.2021 57.8983L39.1968 57.8734C39.1579 57.6933 39.1196 57.5228 39.0822 57.3568L39.1204 57.3675L39.3347 56.8825L40.8797 60.6776L40.8834 61.3433C40.8459 61.4161 40.8107 61.4889 40.7635 61.5631C40.6354 61.754 40.5193 62.0455 40.8085 62.0455C40.8325 62.0455 40.8587 62.0434 40.8879 62.0395L40.8909 62.5932ZM40.9628 55.6563H39.8764L40.3889 54.4973H40.574C40.5964 54.808 40.6504 55.0882 40.7598 55.2699C40.8077 55.3518 40.8692 55.4116 40.9418 55.4471L40.9628 55.6563" fill="#E6EBE6"/>
<path d="M45.0223 84.2708H39.2859C39.773 84.04 40.3784 83.8891 41.0152 83.8042L40.9223 67.9253L45.2576 77.8914L45.0223 84.2708V84.2708ZM39.2245 84.2708H36.1675C36.4006 84.1483 36.6561 84.0003 36.9535 83.8104C37.2083 83.6473 37.4031 83.4127 37.3746 83.1103L37.3731 83.0952H37.3686C37.1109 81.5521 36.5556 78.2459 36.0304 75.3305C36.0109 75.2258 35.9907 75.1251 35.9712 75.0198C35.7959 75.0228 35.6183 75.0242 35.4393 75.0242C34.6997 75.0242 33.937 75 33.1862 74.96L33.1832 74.9804C33.163 75.1296 33.142 75.2826 33.1188 75.4394L33.1113 75.4879C32.9367 76.6425 32.6842 78.0142 32.4385 79.7638C32.2699 80.9912 32.1066 82.4091 31.9724 84.0619V84.0626V84.0635C31.9799 84.0795 32.0114 84.1567 32.0489 84.271H28.8593C29.168 84.1014 29.4774 83.9324 29.7778 83.8111C30.0551 83.696 30.2282 83.4105 30.1989 83.1099L29.6879 74.9004L29.6737 74.6549C28.9552 74.564 28.331 74.4595 27.85 74.3542C27.8995 73.8633 27.9541 73.3875 28.0088 72.9209C28.0598 72.4611 28.1107 72.0158 28.1617 71.5787H26.6789L26.6976 72.1628L27.0573 83.8241C27.7039 83.9067 28.319 84.0505 28.818 84.271H23.8564V54.4976H26.7943C26.8587 55.0924 26.9209 55.6741 26.9809 56.2307C27.1217 56.989 27.2154 57.5645 27.2408 57.8601H27.1562C27.3278 59.4683 27.4566 60.6992 27.4964 61.164L26.3537 61.2552L26.4272 63.5957H27.4289L27.4731 62.6843C27.4941 62.2574 27.8433 61.9165 28.2538 61.9097C28.2351 61.7694 28.2306 61.6247 28.2658 61.5135C28.3258 61.3247 29.129 60.3166 29.5006 59.9059C29.5808 59.2834 29.9502 56.3966 30.1839 54.4976H40.3889L39.8764 55.6566H38.8349L39.3347 56.8828L39.1204 57.3678L39.0822 57.3571C39.1196 57.5231 39.1578 57.6936 39.1968 57.8737L39.202 57.8986C39.283 58.2729 39.3646 58.6744 39.4456 59.1038L38.0182 55.6566H35.5854L40.4098 66.7484C40.5724 68.9829 40.6653 71.5288 40.6384 74.3838C40.3761 74.5193 40.0247 74.6291 39.6089 74.7193C39.5999 76.0713 39.4313 77.6454 39.3009 79.6337C39.2268 80.8055 39.1623 82.1237 39.1518 83.6212V83.6664C39.1586 83.7969 39.1593 83.9295 39.1488 84.0635C39.1563 84.0795 39.1871 84.1573 39.2245 84.271V84.2708ZM28.2426 62.6269L28.1857 62.6843L28.1542 63.5957H29.3021L29.3111 63.5442C29.2369 63.5684 29.1642 63.583 29.0983 63.583C28.9844 63.583 28.8885 63.5403 28.8285 63.4315C28.6757 63.1504 28.5536 62.9148 28.4472 62.6269H28.2426V62.6269ZM46.7538 76.8583L45.8053 63.261L45.8 63.1571L45.4846 71.7074V55.6566H40.9628L40.9418 55.4474C40.8691 55.4119 40.8077 55.3521 40.7598 55.2702C40.6504 55.0885 40.5964 54.8083 40.5739 54.4976H46.7538V76.8583V76.8583ZM45.4179 73.5283L40.8909 62.5935L40.8879 62.0398C40.8587 62.0437 40.8324 62.0458 40.8085 62.0458C40.5192 62.0458 40.6354 61.7543 40.7635 61.5635C40.8107 61.4892 40.8459 61.4164 40.8834 61.3436L40.8796 60.6779L45.4756 71.9672L45.4179 73.5283Z" fill="#CACECA"/>
<path d="M22.262 84.2708H19.6575L20.1963 76.8809L20.8586 78.4148V75.5622H22.262V84.2708ZM15.2459 84.2708H11.1699V75.5622H12.2309H15.5254L15.2459 84.2708V84.2708ZM21.3299 64.4788H21.1014L21.1755 63.4523L21.1838 63.3502L21.3299 64.4788V64.4788ZM14.8428 64.4788H13.4874L13.5106 64.3613C13.5106 64.1674 13.3548 64.0097 13.163 64.0097C12.9704 64.0097 12.8153 64.1674 12.8153 64.3613L12.8385 64.4788H11.1699V22.8743H58.0849V52.6529H55.6632L55.5516 50.5071L55.5344 50.1609C55.5201 50.0828 55.4999 50.005 55.4722 49.9328L55.4235 49.757L53.1502 43.1738C52.9786 42.6726 52.5793 42.3172 52.1118 42.1846V42.1763L49.1896 41.1712L48.3527 40.4554V38.3224C49.5485 37.9034 49.613 36.1491 49.4129 34.6038C49.3035 33.7577 48.9214 33.0912 48.3527 32.6276V22.8743H46.7538V31.9315C46.6249 31.9095 46.4938 31.8928 46.3597 31.8822C46.1042 31.8625 45.8682 31.8527 45.6494 31.8527C45.5932 31.8527 45.5385 31.8534 45.4845 31.855V23.956H38.8349L43.1671 34.5978C43.1139 34.822 43.0749 35.0636 43.0532 35.3234C43.1139 35.5408 43.1903 35.7211 43.1903 35.7211L43.036 36.0749L38.0182 23.956H35.5853L43.1094 41.2537L43.003 41.3523L41.1111 42.1264L41.1141 42.1444C40.6316 42.3361 40.2532 42.7643 40.1551 43.3185L40.0779 43.7618L40.0277 44.0434C39.8801 43.9724 39.7002 43.8928 39.477 43.7972L39.4762 43.799C38.9622 43.5519 38.392 43.3164 37.902 43.1255L37.9118 43.1149L37.0209 42.3778V42.1589C37.2562 42.1482 37.5244 42.1133 37.8391 42.0423C40.4945 41.1772 39.3616 38.4928 39.1391 36.8255C38.9113 35.1136 37.6173 34.066 35.7202 33.8865C35.4527 33.8615 35.2062 33.8502 34.9792 33.8502C34.7207 33.8502 34.4869 33.8653 34.2749 33.8918C34.2059 33.888 34.1385 33.8865 34.0711 33.8865C31.9042 33.8865 30.5907 35.937 32.0256 37.4504C32.0256 37.6247 32.0346 37.7359 32.0346 37.7359L31.5775 38.8745C31.4651 39.1183 31.6892 39.295 31.8727 39.3935C31.9994 39.4615 32.0743 39.5947 32.0638 39.7394C32.0361 40.1471 32.156 40.8212 32.156 40.8212C32.2796 41.4825 32.7906 41.8083 33.4889 41.8243C33.4889 41.8243 33.5691 41.8195 33.6972 41.7931L33.5975 42.3066L32.6902 42.9649C32.0406 43.1693 31.4449 43.3345 31.1452 43.5268L31.1445 43.5316C30.4581 43.7815 29.7501 44.8299 29.8587 46.138L29.8962 47.1937L29.8295 47.1053C29.2855 47.5219 28.1961 48.1522 27.1981 48.7173C26.9831 47.2233 26.7343 44.8586 26.4758 44.0609C26.2405 43.3345 26.2188 43.2392 25.7146 42.6687C25.489 42.4128 25.2163 42.206 24.9129 42.0521L24.9024 42.0461C24.7495 41.9665 24.5869 41.9035 24.4206 41.8559L23.8564 41.6331V41.1756C24.3142 41.0038 24.482 40.3555 24.5038 39.9098C24.5038 39.9098 24.4888 38.9934 24.497 38.7798L24.7997 38.6997C25.0028 38.657 25.1197 38.4419 25.0477 38.2457L24.6124 37.0542C24.6124 37.0542 24.6971 36.8847 24.769 36.6778C24.7443 35.5742 24.3861 34.7902 23.8564 34.2789V22.8743H22.262V33.0836C22.1391 33.0692 22.0095 33.0616 21.8746 33.0616C21.6738 33.0616 21.4603 33.0791 21.24 33.1184C21.1096 33.1412 20.9822 33.1684 20.8586 33.1987V23.956H14.2089L18.6266 34.8084C18.4977 35.0795 18.4063 35.3856 18.3576 35.7317C18.3486 35.7931 18.3396 35.8582 18.3314 35.9264L13.6777 24.7566V30.0779L18.4767 41.1969L18.0706 41.5384L15.1395 42.9483L15.1388 42.9543C15.0002 43.0051 14.863 43.0762 14.7312 43.1853C14.2307 43.599 13.7976 44.3026 13.6545 44.961C13.1577 47.247 12.1964 51.4424 12.2084 51.5259C12.2092 51.8614 12.2167 52.2387 12.2316 52.6529H11.1699V54.4975H12.3283C12.4384 56.1329 12.628 58.0925 12.9075 60.2217L13.0858 60.1854L13.154 60.6611L13.6035 60.5821L13.632 60.718C13.4499 60.9573 13.3653 61.2707 13.4327 61.5897L13.587 62.3116L13.6964 62.8253C13.4919 62.9312 13.2941 63.0585 13.109 63.2108C12.9112 63.3727 12.8528 63.6221 12.9599 63.7295C13.0019 63.7727 13.0588 63.7917 13.1217 63.7917C13.2207 63.7917 13.3353 63.7446 13.4342 63.6639C13.5571 63.563 13.6859 63.4766 13.8193 63.3994L13.928 63.9097C13.9602 64.0606 14.0921 64.1636 14.2382 64.1636C14.2606 64.1636 14.2831 64.1612 14.3056 64.1568L14.3123 64.1553C14.4652 64.1219 14.5686 63.9825 14.5626 63.8295L14.5731 63.8523L14.5911 63.9364C14.6053 64.0062 14.6398 64.0675 14.6862 64.1145L14.8428 64.4788V64.4788ZM49.8273 24.7566V30.0779L57.0074 46.7144V41.9899L49.8273 24.7566ZM50.3585 23.956L57.0074 40.2909V23.956H50.3585ZM52.7943 52.6529H51.2643L51.6157 48.3149L52.4736 50.798L52.7943 52.6529ZM30.2783 52.6529H27.0333C27.9436 52.0304 29.1814 51.1607 30.1225 50.4819L30.2783 52.6529Z" fill="#E6EBE6"/>
<path d="M19.6575 84.2708H15.2459L15.5254 75.5622H11.1699V64.4788H12.8385L12.8153 64.3613C12.8153 64.1674 12.9704 64.0097 13.163 64.0097C13.3548 64.0097 13.5106 64.1674 13.5106 64.3613L13.4874 64.4788H14.8428L20.1963 76.8809L19.6575 84.2708V84.2708ZM22.262 75.5622H20.8586V73.6904L13.6777 56.4571V61.7784L14.5626 63.8295C14.5686 63.9825 14.4652 64.1219 14.3123 64.1553L14.3056 64.1568C14.2831 64.1612 14.2606 64.1636 14.2382 64.1636C14.0921 64.1636 13.9602 64.0606 13.928 63.9097L13.8193 63.3994C13.6859 63.4766 13.5571 63.563 13.4342 63.6639C13.3353 63.7446 13.2207 63.7917 13.1217 63.7917C13.0588 63.7917 13.0019 63.7727 12.9599 63.7295C12.8528 63.6221 12.9112 63.3727 13.109 63.2108C13.2941 63.0585 13.4919 62.9312 13.6964 62.8253L13.587 62.3116L13.4327 61.5897C13.3653 61.2707 13.4499 60.9573 13.632 60.718L13.6035 60.5821L13.154 60.6611L13.0858 60.1854L12.9075 60.2217C12.628 58.0925 12.4384 56.1329 12.3283 54.4975H22.262V75.5622V75.5622ZM14.2089 55.6565L20.8586 71.9914V55.6565H14.2089ZM21.1838 63.3502L21.1755 63.4523L21.1014 64.4788H21.3299L21.1838 63.3502V63.3502ZM14.6862 64.1145C14.6398 64.0675 14.6053 64.0062 14.5911 63.9364L14.5731 63.8523L14.6862 64.1145V64.1145ZM55.6632 52.6529H52.7943L52.4736 50.798L51.6157 48.3149L51.2643 52.6529H48.3527V40.4554L49.1896 41.1712L52.1118 42.1763V42.1846C52.5793 42.3172 52.9786 42.6726 53.1502 43.1738L55.4235 49.757L55.4722 49.9328C55.4999 50.005 55.5201 50.0828 55.5344 50.1609L55.5516 50.5071L55.6632 52.6529V52.6529ZM46.7538 52.6529H30.2783L30.1225 50.4819C29.1814 51.1607 27.9436 52.0304 27.0333 52.6529H23.8564V41.6331L24.4206 41.8559C24.5869 41.9035 24.7495 41.9665 24.9024 42.0461L24.9129 42.0521C25.2163 42.206 25.489 42.4128 25.7146 42.6687C26.2188 43.2392 26.2405 43.3345 26.4758 44.0609C26.7343 44.8586 26.9831 47.2233 27.1981 48.7173C28.1961 48.1522 29.2855 47.5219 29.8295 47.1053L29.8962 47.1937L29.8587 46.138C29.7501 44.8299 30.4581 43.7815 31.1445 43.5316L31.1452 43.5268C31.4449 43.3345 32.0406 43.1693 32.6902 42.9649L33.5975 42.3066L33.6972 41.7931C33.5691 41.8195 33.4889 41.8243 33.4889 41.8243C32.7906 41.8083 32.2796 41.4825 32.156 40.8212C32.156 40.8212 32.0361 40.1471 32.0638 39.7394C32.0743 39.5947 31.9994 39.4615 31.8727 39.3935C31.6892 39.295 31.4651 39.1183 31.5775 38.8745L32.0346 37.7359C32.0346 37.7359 32.0256 37.6247 32.0256 37.4504C30.5907 35.937 31.9042 33.8865 34.0711 33.8865C34.1385 33.8865 34.2059 33.888 34.2749 33.8918C34.4869 33.8653 34.7207 33.8502 34.9792 33.8502C35.2062 33.8502 35.4527 33.8615 35.7202 33.8865C37.6173 34.066 38.9113 35.1136 39.1391 36.8255C39.3616 38.4928 40.4945 41.1772 37.8391 42.0423C37.5244 42.1133 37.2562 42.1482 37.0209 42.1589V42.3778L37.9118 43.1149L37.902 43.1255C38.392 43.3164 38.9622 43.5519 39.4762 43.799L39.477 43.7972C39.7002 43.8928 39.8801 43.9724 40.0277 44.0434L40.0779 43.7618L40.1551 43.3185C40.2532 42.7643 40.6316 42.3361 41.1141 42.1444L41.1111 42.1264L43.003 41.3523L43.1094 41.2537L45.4845 46.7144V41.9899L43.036 36.0749L43.1903 35.7211C43.1903 35.7211 43.1139 35.5408 43.0532 35.3234C43.0749 35.0636 43.1139 34.822 43.1671 34.5978L45.4845 40.2909V31.855C45.5385 31.8534 45.5932 31.8527 45.6494 31.8527C45.8682 31.8527 46.1042 31.8625 46.3597 31.8822C46.4938 31.8928 46.6249 31.9095 46.7538 31.9315V52.6529V52.6529ZM22.262 52.6529H12.2316C12.2167 52.2387 12.2092 51.8614 12.2084 51.5259C12.1964 51.4424 13.1577 47.247 13.6545 44.961C13.7976 44.3026 14.2307 43.599 14.7312 43.1853C14.863 43.0762 15.0002 43.0051 15.1388 42.9543L15.1395 42.9483L18.0706 41.5384L18.4767 41.1969L20.8586 46.7144V41.9899L18.3314 35.9264C18.3396 35.8582 18.3486 35.7931 18.3576 35.7317C18.4063 35.3856 18.4977 35.0795 18.6266 34.8084L20.8586 40.2909V33.1987C20.9822 33.1684 21.1096 33.1412 21.24 33.1184C21.4603 33.0791 21.6738 33.0616 21.8746 33.0616C22.0095 33.0616 22.1391 33.0692 22.262 33.0836V52.6529V52.6529ZM23.8564 41.1756V34.2789C24.3861 34.7902 24.7443 35.5742 24.769 36.6778C24.6971 36.8847 24.6124 37.0542 24.6124 37.0542L25.0477 38.2457C25.1197 38.4419 25.0028 38.657 24.7997 38.6997L24.497 38.7798C24.4888 38.9934 24.5038 39.9098 24.5038 39.9098C24.482 40.3555 24.3142 41.0038 23.8564 41.1756ZM48.3527 38.3224V32.6276C48.9214 33.0912 49.3035 33.7577 49.4129 34.6038C49.613 36.1491 49.5485 37.9034 48.3527 38.3224Z" fill="#CACECA"/>
<path d="M46.2765 52.1546V22.3925H48.8315V52.1682H48.8397L47.5615 53.5711L46.2765 52.1546" fill="#73878C"/>
<path d="M48.8397 52.1682H58.0849L58.5936 52.6514L57.5267 53.3808L47.6866 53.4341L48.8397 52.1682Z" fill="#95AFB5"/>
<path d="M58.5936 54.4961L58.0849 54.9792H48.839L47.5615 53.5711L47.6866 53.4341L58.5936 54.4961" fill="#607175"/>
<path d="M47.5616 53.5711L48.8391 54.9792H48.8316V84.7549H46.2766V54.9792H46.2721L47.5571 53.5666L47.5616 53.5711" fill="#6D8085"/>
<path d="M24.3569 52.1682H46.2765V52.1546L47.4379 53.4347L23.0974 53.543L24.3569 52.1682Z" fill="#95AFB5"/>
<path d="M47.4379 53.4347L47.557 53.5666L46.272 54.9792H24.3367V54.9822L23.0645 53.5793L23.0974 53.543L47.4379 53.4347" fill="#607175"/>
<path d="M24.3367 54.9822V84.7549H21.7817V54.9801L23.0645 53.5793L24.3367 54.9822Z" fill="#6D8085"/>
<path d="M21.7817 22.3926H24.3367V52.1682H24.3569L23.0645 53.5793L21.7817 52.1653V22.3926Z" fill="#73878C"/>
<path d="M11.1699 52.1688V53.5968L23.033 53.5438L22.2238 52.6529L21.7832 52.1688H11.1699" fill="#95AFB5"/>
<path d="M11.1699 53.5968V54.9816H21.7832L22.2238 54.4975L22.9753 53.6749L23.0667 53.5779L23.033 53.5438L11.1699 53.5968" fill="#607175"/>
<path d="M11.1699 52.6529V54.4975H22.262V84.2708H23.8564V54.4975H46.7538V84.2708H48.3527V54.4975H58.5921V52.6529H48.3527V22.8743H46.7538V52.6529H23.8564V22.8743H22.262V52.6529H11.1699Z" fill="#7C9298"/>
<path d="M11.1722 84.2708H58.0848L60 86.8525H9.25708L11.1722 84.2708Z" fill="#8DA7AD"/>
<path d="M60 86.8525V90.9269C60 95.9374 55.9817 100 51.0246 100H18.2324C13.2753 100 9.25708 95.9374 9.25708 90.9269V86.8525H60Z" fill="#7C9298"/>
<path d="M58.0848 22.8758H11.1722L9.25708 20.2951H60L58.0848 22.8758Z" fill="#65787D"/>
<path d="M9.25708 20.2951V16.2206C9.25708 11.2092 13.2753 7.1468 18.2324 7.1468H51.0246C55.9817 7.1468 60 11.2092 60 16.2206V20.2951H9.25708Z" fill="#7C9298"/>
<path d="M0 92.7812H8.27257C10.7541 92.7812 12.7659 90.7473 12.7659 88.2378V18.9089C12.7659 16.4002 10.7541 14.3663 8.27257 14.3663H0V92.7812Z" fill="#607175"/>
<path d="M8.27261 90.3611C9.43022 90.3611 10.372 89.4089 10.372 88.2378V18.9089C10.372 17.7386 9.43022 16.7865 8.27261 16.7865H2.39392V90.3611H8.27261Z" fill="#7C9298"/>
<path d="M3.86462 21.8737C3.86462 23.2803 4.99227 24.4203 6.3829 24.4203C7.77427 24.4203 8.90192 23.2803 8.90192 21.8737C8.90192 20.467 7.77427 19.327 6.3829 19.327C4.99227 19.327 3.86462 20.467 3.86462 21.8737Z" fill="#607175"/>
<path d="M3.86462 85.5618C3.86462 86.9681 4.99227 88.1082 6.3829 88.1082C7.77427 88.1082 8.90192 86.9681 8.90192 85.5618C8.90192 84.1557 7.77427 83.0156 6.3829 83.0156C4.99227 83.0156 3.86462 84.1557 3.86462 85.5618Z" fill="#607175"/>
<path d="M4.82153 21.8737C4.82153 22.7455 5.5206 23.4523 6.383 23.4523C7.2454 23.4523 7.94446 22.7455 7.94446 21.8737C7.94446 21.0018 7.2454 20.2951 6.383 20.2951C5.5206 20.2951 4.82153 21.0018 4.82153 21.8737Z" fill="#7C9298"/>
<path d="M4.82153 85.5618C4.82153 86.4335 5.5206 87.1404 6.383 87.1404C7.2454 87.1404 7.94446 86.4335 7.94446 85.5618C7.94446 84.6898 7.2454 83.9829 6.383 83.9829C5.5206 83.9829 4.82153 84.6898 4.82153 85.5618Z" fill="#7C9298"/>
<path d="M26.0945 1.99595H43.1626C44.4379 1.99595 45.4719 3.04127 45.4719 4.3305V7.1468H23.7853V4.3305C23.7853 3.04127 24.8193 1.99595 26.0945 1.99595" fill="#607175"/>
<path d="M5.44189 15.0193H6.87824V11.7735C6.87824 7.97472 9.93597 4.88346 13.6935 4.88346H25.4412V3.43136H13.6935C9.144 3.43136 5.44189 7.17407 5.44189 11.7735V15.0193Z" fill="#607175"/>
<path d="M57.0075 40.2909L50.3585 23.956H57.0075V40.2909Z" fill="#F2F5F2"/>
<path d="M57.0074 46.7144L49.8273 30.0779V24.7566L57.0074 41.9899V46.7144Z" fill="#F2F5F2"/>
<path d="M18.6266 34.8084L14.209 23.956H20.8587V33.1987C19.8292 33.4494 19.0372 33.9471 18.6266 34.8084Z" fill="#F2F5F2"/>
<path d="M20.8586 40.2909L18.6266 34.8083C19.0372 33.9471 19.8292 33.4494 20.8586 33.1987V40.2909Z" fill="#E5E7E5"/>
<path d="M18.4767 41.1969L13.6777 30.0779V24.7566L18.3314 35.9264C18.2063 36.9566 18.177 38.6798 19.5489 39.3009L19.5557 39.3018L19.4568 40.3182L19.2492 40.5487L18.4767 41.1969" fill="#F2F5F2"/>
<path d="M20.8586 46.7144L18.4767 41.1969L19.2492 40.5487L19.4568 40.3182L19.5557 39.3018L19.5489 39.3009C18.177 38.6798 18.2063 36.9566 18.3314 35.9264L20.8586 41.9899V46.7144" fill="#E5E7E5"/>
<path d="M43.167 34.5978L38.8348 23.956H45.4845V31.855C42.7377 31.9163 42.9902 33.5335 43.5319 33.6562C43.3776 33.9274 43.2532 34.2403 43.167 34.5978" fill="#F2F5F2"/>
<path d="M45.4846 40.2909L43.1671 34.5978C43.2533 34.2402 43.3777 33.9274 43.532 33.6562C42.9903 33.5335 42.7378 31.9163 45.4846 31.8549V40.2909Z" fill="#E5E7E5"/>
<path d="M44.5848 41.3061C44.354 41.0135 44.3143 40.7303 44.088 40.3555L43.4647 40.928L43.1095 41.2537L35.5854 23.956H38.0183L43.0361 36.0749L42.6682 36.9172C42.582 37.114 42.6892 37.3421 42.8945 37.3998L43.2009 37.5004C43.1964 37.7217 43.1238 38.6623 43.1238 38.6623C43.117 39.2192 43.3845 39.9812 44.0491 39.9995L44.121 40.0003C44.2042 40.4934 44.3578 40.9335 44.5998 41.3054L44.5848 41.3063" fill="#F2F5F2"/>
<path d="M45.4846 46.7144L43.1094 41.2537L43.4646 40.928L44.088 40.3555C44.3143 40.7303 44.354 41.0135 44.5848 41.3061L44.5997 41.3052C44.3577 40.9333 44.2041 40.4933 44.1209 40.0001L44.049 39.9994C43.3844 39.981 43.117 39.2191 43.1237 38.6622C43.1237 38.6622 43.1964 37.7215 43.2009 37.5003L42.8944 37.3996C42.6891 37.342 42.582 37.1138 42.6681 36.917L43.036 36.0747L45.4846 41.9898V46.7142" fill="#E5E7E5"/>
<path d="M57.0074 71.9914L50.5743 56.1867C50.5698 56.1027 50.5653 56.0237 50.5593 55.942L50.4724 55.9373L50.4454 55.8716C50.5256 55.8221 50.5983 55.7479 50.6627 55.6565H53.3129L53.7489 58.1825L53.8935 58.1552C53.8021 58.228 53.7242 58.3151 53.6635 58.416L53.6583 58.4266C53.5976 58.5296 53.5549 58.6432 53.5339 58.766C53.3241 59.4794 53.0544 60.1528 52.7314 60.7724C52.6408 60.9506 52.7037 61.1686 52.8753 61.2707L52.882 61.2746C52.9375 61.308 52.9982 61.3239 53.0581 61.3239C53.184 61.3239 53.3061 61.2541 53.3713 61.1269C53.4252 61.0245 53.4747 60.9194 53.5256 60.8148L53.5391 62.1646C53.5414 62.3495 53.6905 62.4986 53.8725 62.4986C53.874 62.4986 53.8748 62.4986 53.8763 62.4986H53.883C54.0359 62.4966 54.158 62.3898 54.1962 62.248L54.1985 62.4587C54.2 62.6433 54.3581 62.7925 54.5514 62.7925C54.5529 62.7925 54.5536 62.7925 54.5551 62.7925L54.5626 62.7917C54.7574 62.7903 54.9148 62.6372 54.9125 62.4508L54.9103 62.2153C54.9222 62.3911 55.0669 62.5311 55.2459 62.5311C55.2474 62.5311 55.2489 62.5311 55.2497 62.5311L55.2564 62.5303C55.4445 62.5288 55.5951 62.3755 55.5936 62.19L55.5876 61.5811C55.6213 61.7083 55.7315 61.8039 55.8678 61.8039C55.8686 61.8039 55.8701 61.8039 55.8708 61.8039L55.8768 61.803C56.0409 61.8015 56.172 61.666 56.1698 61.5009L56.148 60.222L56.151 60.204L56.1465 59.7238L56.145 59.601L56.1376 58.9124C56.1346 58.5633 55.9517 58.2588 55.6798 58.0854L55.6768 57.8126L55.9285 57.7641L55.8191 55.6562H57.0074V71.991" fill="#F2F5F2"/>
<path d="M54.5514 62.7924C54.3581 62.7924 54.2 62.6433 54.1985 62.4587L54.1962 62.248C54.158 62.3898 54.0359 62.4966 53.883 62.4986H53.8763C53.8748 62.4986 53.8741 62.4986 53.8726 62.4986C53.6905 62.4986 53.5414 62.3495 53.5391 62.1646L53.5256 60.8148C53.4747 60.9194 53.4252 61.0245 53.3713 61.1269C53.3061 61.2541 53.184 61.3239 53.0581 61.3239C52.9982 61.3239 52.9375 61.308 52.882 61.2745L52.8753 61.2707C52.7037 61.1686 52.6408 60.9506 52.7314 60.7724C53.0544 60.1528 53.3241 59.4794 53.5339 58.766C53.5549 58.6432 53.5976 58.5296 53.6583 58.4266L53.6635 58.416C53.7242 58.3151 53.8021 58.228 53.8935 58.1552L53.7489 58.1825L53.3129 55.6565H55.8191L55.9285 57.7644L55.6768 57.813L55.6798 58.0857C55.9518 58.2591 56.1346 58.5636 56.1376 58.9127L56.1451 59.6013L56.1466 59.7241L56.1511 60.2043L56.1481 60.2223L56.1698 61.5012C56.172 61.6663 56.0409 61.8018 55.8768 61.8033L55.8708 61.8042C55.8701 61.8042 55.8686 61.8042 55.8678 61.8042C55.7315 61.8042 55.6213 61.7086 55.5876 61.5814L55.5936 62.1903C55.5951 62.3758 55.4445 62.5291 55.2564 62.5306L55.2497 62.5313C55.2489 62.5313 55.2474 62.5313 55.2459 62.5313C55.0669 62.5313 54.9223 62.3914 54.9103 62.2156L54.9125 62.4511C54.9148 62.6376 54.7574 62.7906 54.5626 62.792L54.5551 62.7928C54.5536 62.7928 54.5529 62.7928 54.5514 62.7928V62.7924ZM50.5743 56.187L50.4724 55.9376L50.5593 55.9423C50.5653 56.024 50.5698 56.103 50.5743 56.187V56.187ZM50.4454 55.8719L50.3585 55.6568H50.6627C50.5983 55.7482 50.5256 55.8225 50.4454 55.8719Z" fill="#E5E7E5"/>
<path d="M57.0075 78.4148L50.901 64.2666L50.7512 59.3832C50.7512 59.2788 50.7317 58.9705 50.7047 58.5627L57.0075 73.6904V78.4148Z" fill="#F2F5F2"/>
<path d="M50.9009 64.2666L49.8273 61.7784V56.4571L50.7047 58.5627C50.7316 58.9705 50.7511 59.2788 50.7511 59.3832L50.9009 64.2666Z" fill="#E5E7E5"/>
<path d="M20.8587 71.9914L14.209 55.6565H20.8587V71.9914Z" fill="#E5E7E5"/>
<path d="M20.8587 78.4148L20.1963 76.8809L20.2922 75.5622H20.8587V78.4148ZM15.8821 64.4788H14.8428L14.6863 64.1145C14.7522 64.182 14.8436 64.2219 14.9403 64.2219C14.9657 64.2219 14.9905 64.2199 15.0159 64.2136L15.0234 64.2121C15.207 64.1728 15.3216 63.9962 15.2984 63.8121L15.3568 64.0855C15.3928 64.2553 15.5412 64.3713 15.706 64.3713C15.7315 64.3713 15.7569 64.3681 15.7817 64.3627L15.7892 64.3613L15.8873 64.3181L15.8821 64.4788ZM14.5731 63.8523L14.5626 63.8295C14.5626 63.8115 14.5604 63.7932 14.5566 63.7751L14.5731 63.8523ZM15.921 63.2638L15.8903 63.1191L15.9008 63.1221L15.9225 63.2191L15.921 63.2638Z" fill="#F2F5F2"/>
<path d="M20.1963 76.881L14.8428 64.4788H15.8821L15.8873 64.3181L15.7891 64.3613L15.7816 64.3627C15.7569 64.3681 15.7314 64.3713 15.706 64.3713C15.5411 64.3713 15.3928 64.2553 15.3568 64.0855L15.2984 63.8121C15.3216 63.9962 15.207 64.1728 15.0234 64.2121L15.0159 64.2137C14.9904 64.2199 14.9657 64.2219 14.9402 64.2219C14.8436 64.2219 14.7522 64.182 14.6862 64.1145L14.5731 63.8523L14.5566 63.7751C14.5604 63.7932 14.5626 63.8115 14.5626 63.8295L13.6777 61.7784V56.4571L20.8586 73.6904V75.5622H20.2922L20.1963 76.881V76.881ZM15.8903 63.1191L15.921 63.2639L15.9225 63.2192L15.9008 63.1221L15.8903 63.1191Z" fill="#E5E7E5"/>
<path d="M45.4846 71.9914L45.4756 71.9671L45.4846 71.7073V71.9914ZM40.8797 60.6777L39.3347 56.8826L39.8764 55.6565H40.9629L41.0775 56.8185C40.9501 57.8591 40.8722 59.203 40.8722 59.3832L40.8797 60.6777" fill="#F2F5F2"/>
<path d="M45.4755 71.9671L40.8796 60.6777L40.8721 59.3832C40.8721 59.203 40.95 57.8591 41.0774 56.8184L40.9627 55.6565H45.4845V71.7073L45.4755 71.9671V71.9671ZM39.3346 56.8826L38.8348 55.6565H39.8763L39.3346 56.8826Z" fill="#E5E7E5"/>
<path d="M45.4846 78.4148L45.2576 77.8914L45.4179 73.5282L45.4846 73.6904V78.4148V78.4148ZM40.9223 67.9253L40.4098 66.7482C40.2435 64.4628 40.0045 62.5025 39.7468 60.8694C39.6501 60.2345 39.5482 59.6469 39.4456 59.1036L40.8909 62.5933L40.9223 67.9253Z" fill="#F2F5F2"/>
<path d="M45.2577 77.8914L40.9224 67.9253L40.891 62.5933L45.418 73.5282L45.2577 77.8914V77.8914ZM40.4099 66.7483L35.5854 55.6565H38.0183L39.4456 59.1036C39.5483 59.6469 39.6502 60.2345 39.7468 60.8695C40.0046 62.5025 40.2436 64.4628 40.4099 66.7483Z" fill="#E5E7E5"/>
</g>
<defs>
<clipPath id="clip0">
<rect width="60" height="100" fill="white"/>
</clipPath>
</defs>
</svg>
